<?xml version="1.0" encoding="UTF-8"?>
<svg width="287px" height="96px" viewBox="0 0 287 96" version="1.1" xmlns="http://www.w3.org/2000/svg" xmlns:xlink="http://www.w3.org/1999/xlink">
    <!-- Generator: Sketch 48.2 (47327) - http://www.bohemiancoding.com/sketch -->
    <title>dooringX@1.5x</title>
    <desc>Created with Sketch.</desc>
    <defs></defs>
    <g id="Page-1" stroke="none" stroke-width="1" fill="none" fill-rule="evenodd">
        <g id="dooringX">
            <g id="Group-9-Copy-8" transform="translate(78.000000, 30.000000)" fill="#5271ED">
                <path d="M83,10 L87,10 L87,30 C87,37.7319865 80.7319865,44 73,44 L68,44 L68,36 L73,36 C76.3137085,36 79,33.3137085 79,30 L79,14 C79,11.790861 80.790861,10 83,10 Z" id="Path" transform="translate(77.500000, 27.000000) rotate(180.000000) translate(-77.500000, -27.000000) "></path>
                <path d="M136,10 L136,29 C136,37.2842712 129.284271,44 121,44 C112.715729,44 106,37.2842712 106,29 L106,14 C106,11.790861 107.790861,10 110,10 L114,10 L114,29 C114,32.8659932 117.134007,36 121,36 C124.865993,36 128,32.8659932 128,29 L128,14 C128,11.790861 129.790861,10 132,10 L136,10 Z" id="Rectangle-58" fill-rule="nonzero" transform="translate(121.000000, 27.000000) rotate(180.000000) translate(-121.000000, -27.000000) "></path>
                <path d="M15,18 C11.1340068,18 8,21.1340068 8,25 L8,29 C8,32.8659932 11.1340068,36 15,36 C18.8659932,36 22,32.8659932 22,29 L22,25 C22,21.1340068 18.8659932,18 15,18 Z M15,10 C23.2842712,10 30,16.7157288 30,25 L30,29 C30,37.2842712 23.2842712,44 15,44 C6.71572875,44 0,37.2842712 0,29 L0,25 C0,16.7157288 6.71572875,10 15,10 Z" id="Rectangle-59" fill-rule="nonzero"></path>
                <path d="M49,18 C45.1340068,18 42,21.1340068 42,25 L42,29 C42,32.8659932 45.1340068,36 49,36 C52.8659932,36 56,32.8659932 56,29 L56,25 C56,21.1340068 52.8659932,18 49,18 Z M49,10 C57.2842712,10 64,16.7157288 64,25 L64,29 C64,37.2842712 57.2842712,44 49,44 C40.7157288,44 34,37.2842712 34,29 L34,25 C34,16.7157288 40.7157288,10 49,10 Z" id="Rectangle-59-Copy" fill-rule="nonzero"></path>
                <path d="M155,18 C151.134007,18 148,21.1340068 148,25 L148,29 C148,32.8659932 151.134007,36 155,36 C158.865993,36 162,32.8659932 162,29 L162,25 C162,21.1340068 158.865993,18 155,18 Z M162.795008,12.1819221 C163.524479,11.2068 164.688533,10.5756531 166,10.5756531 L170,10.5756531 L170,44 C170,51.7319865 163.731986,58 156,58 L154,58 C146.268014,58 140,51.7319865 140,44 L148,44 C148,47.3137085 150.686292,50 154,50 L156,50 C159.313708,50 162,47.3137085 162,44 L162,42.2699068 C159.910282,43.3745369 157.528183,44 155,44 C146.715729,44 140,37.2842712 140,29 L140,25 C140,16.7157288 146.715729,10 155,10 C157.854821,10 160.52337,10.7975211 162.795008,12.1819221 Z" id="Combined-Shape" fill-rule="nonzero"></path>
                <path d="M96,14 L100,14 L100,40 C100,42.209139 98.209139,44 96,44 L92,44 L92,18 C92,15.790861 93.790861,14 96,14 Z M96,0 L100,0 L100,8 L92,8 L92,4 C92,1.790861 93.790861,4.05812251e-16 96,0 Z" id="Combined-Shape"></path>
            </g>
            <g id="dooringX图标" transform="translate(34.500000, 48.000000) scale(1, -1) translate(-34.500000, -48.000000) ">
                <polygon id="Rectangle-42-Copy-16" fill="#5271ED" points="-9.09494702e-13 17.5 27 0 27 16 13 24.5 13.5 72 -9.09494702e-13 80"></polygon>
                <polygon id="Rectangle-42-Copy-17" fill="#5271ED" points="41 40.5 55 32 55 64 27 80 27 64 41 56"></polygon>
                <polygon id="Rectangle-42-Copy-18" fill="#E6EBFF" points="0 80.0502832 13.4014599 72.0251416 26.8029197 80.0502832 54.5985401 64 68 72.0251416 26.3065693 96"></polygon>
                <polygon id="Rectangle-42-Copy-19" fill="#9CB0FF" points="27 0 69 24.4491525 69 72 55.2830686 64.0150631 55.2830686 32 27 16"></polygon>
                <polygon id="Rectangle-42-Copy-20" fill="#9CB0FF" points="13 24.9279279 27 33 27 80 13.5 71.9279279"></polygon>
                <polygon id="Rectangle-42-Copy-21" fill="#E6EBFF" points="13 24.6734694 27 16 55 32.3265306 41 41"></polygon>
            </g>
            <path d="M253,73.9416499 L265.035179,56.8194364 L253.899537,41 L260.802459,41 C262.104165,41 263.324459,41.6334057 264.073614,42.6979259 L269.916196,51 L275.115548,42.8488836 C275.850197,41.6971618 277.121812,41 278.487891,41 L285.963874,41 L274.580083,56.5092514 L286.832392,73.9416499 L279.15655,73.9416499 C277.797989,73.9416499 276.532298,73.2520866 275.79564,72.1105863 L269.916196,63 L262.961708,72.3318693 C262.2068,73.3448406 261.017723,73.9416499 259.754395,73.9416499 L253,73.9416499 Z" id="x" fill="#9CB0FF"></path>
        </g>
    </g>
</svg>